<?xml version="1.0" standalone="no"?>
<!DOCTYPE svg PUBLIC "-//W3C//DTD SVG 1.1//EN" "http://www.w3.org/Graphics/SVG/1.1/DTD/svg11.dtd" >
<svg xmlns="http://www.w3.org/2000/svg">
<metadata>
Created by FontForge 20120731 at Mon Jul  4 01:07:42 2016
 By admin
</metadata>
<defs>
<font id="iconfont" horiz-adv-x="1024" >
  <font-face 
    font-family="iconfont"
    font-weight="500"
    font-stretch="normal"
    units-per-em="1024"
    panose-1="2 0 6 3 0 0 0 0 0 0"
    ascent="896"
    descent="-128"
    x-height="792"
    bbox="-0.125874 -212 1697 896"
    underline-thickness="50"
    underline-position="-100"
    unicode-range="U+0078-E62B"
  />
<missing-glyph horiz-adv-x="374" 
d="M34 0v682h272v-682h-272zM68 34h204v614h-204v-614z" />
    <glyph glyph-name=".notdef" horiz-adv-x="374" 
d="M34 0v682h272v-682h-272zM68 34h204v614h-204v-614z" />
    <glyph glyph-name=".null" horiz-adv-x="0" 
 />
    <glyph glyph-name="nonmarkingreturn" horiz-adv-x="341" 
 />
    <glyph glyph-name="x" unicode="x" horiz-adv-x="1001" 
d="M281 543q-27 -1 -53 -1h-83q-18 0 -36.5 -6t-32.5 -18.5t-23 -32t-9 -45.5v-76h912v41q0 16 -0.5 30t-0.5 18q0 13 -5 29t-17 29.5t-31.5 22.5t-49.5 9h-133v-97h-438v97zM955 310v-52q0 -23 0.5 -52t0.5 -58t-10.5 -47.5t-26 -30t-33 -16t-31.5 -4.5q-14 -1 -29.5 -0.5
t-29.5 0.5h-32l-45 128h-439l-44 -128h-29h-34q-20 0 -45 1q-25 0 -41 9.5t-25.5 23t-13.5 29.5t-4 30v167h911zM163 247q-12 0 -21 -8.5t-9 -21.5t9 -21.5t21 -8.5q13 0 22 8.5t9 21.5t-9 21.5t-22 8.5zM316 123q-8 -26 -14 -48q-5 -19 -10.5 -37t-7.5 -25t-3 -15t1 -14.5
t9.5 -10.5t21.5 -4h37h67h81h80h64h36q23 0 34 12t2 38q-5 13 -9.5 30.5t-9.5 34.5q-5 19 -11 39h-368zM336 498v228q0 11 2.5 23t10 21.5t20.5 15.5t34 6h188q31 0 51.5 -14.5t20.5 -52.5v-227h-327z" />
    <glyph glyph-name="uniE600" unicode="&#xe600;" horiz-adv-x="1000" 
d="M941 -54l-212 216q-5 6 -12 8q73 98 73 221q0 98 -47.5 182t-129.5 132.5t-179 48.5t-179 -48.5t-129.5 -132.5t-47.5 -182.5t47.5 -182.5t129.5 -132.5t179 -48.5q134 0 235 91q3 -6 7 -10l212 -217q11 -11 26.5 -11t26.5 11.5t11 27t-11 27.5zM434 84q-124 0 -212 90
t-88 217t88 216.5t212 89.5t212 -89.5t88 -216.5t-88 -217t-212 -90z" />
    <glyph glyph-name="uniE601" unicode="&#xe601;" 
d="M964 524h-43v-442h-26v520h-27q-18 0 -68.5 -4t-95.5 -12t-99 -26t-91 -43q-36 25 -91 43t-97.5 26t-97.5 12t-66 4h-29v-520h-29v442h-43v-485h335q37 -8 61 -25q25 -17 55 -17q31 0 56 17q24 17 61 25h335v485zM553 447q60 34 127.5 53.5t105.5 21.5l37 2v-376
q-22 -3 -56.5 -7t-107.5 -19.5t-106 -32.5v358zM205 524q6 0 15.5 -0.5t40.5 -4.5t61.5 -11.5t73 -23.5t79.5 -37v-358q-33 17 -102 32t-115.5 21t-52.5 6v376z" />
    <glyph glyph-name="uniE602" unicode="&#xe602;" 
d="M956 23q-5 15 -18 26.5t-24 16t-32.5 12.5t-30.5 11q-14 6 -64 27.5t-76 32.5q-6 2 -19 5.5t-19 4.5q-13 9 -38 63q-4 1 -12.5 2t-12.5 1q1 16 11.5 29t13.5 20q2 8 3 29t6 30q4 6 14.5 11.5t13.5 9.5q9 12 13 36q8 46 -3 69q-1 3 -4 8t-4.5 8.5t-1.5 9.5q-1 10 2 47
t3 38q1 30 -8 64q-9 27 -23 35l-29 5l-17 17q-25 15 -52.5 20t-55 0t-43 -10t-37.5 -14q-106 -34 -71 -200q3 -12 -3.5 -25t-6.5 -17q0 -1 1 -17.5t2.5 -25t4 -22t7.5 -22.5t11 -13q1 -1 6 -2t9 -2t4 0q1 -12 3.5 -36.5t3.5 -37.5q3 -6 12.5 -17t12.5 -24l-19 -4
q-25 -54 -38 -63q-31 -8 -38 -10q-26 -11 -76 -32.5t-64 -27.5q-9 -3 -30.5 -11t-32.5 -12.5t-24 -16t-18 -26.5q0 -9 -1 -61.5t-1 -74.5h392l28 196l-24 50l56 27l46 -26l-26 -52l46 -195h374q0 22 -1 74.5t-1 61.5z" />
    <glyph glyph-name="uniE603" unicode="&#xe603;" 
d="M896 607h64v-640h-64v640zM64 607h64v-640h-64v640zM653 607h64v-640h-64v640zM64 671h896v-64h-896v64zM173 326h441v-64h-441v64zM64 31h896v-64h-896v64zM192 -33h64v-64h-64v64zM173 390h64v-64h-64v64zM550 390h64v-64h-64v64zM768 -33h64v-64h-64v64zM742 511h128
v-64h-128v64zM742 255h128v-64h-128v64zM742 383h128v-64h-128v64zM960 -148h64v-64h-64v64z" />
    <glyph glyph-name="uniE604" unicode="&#xe604;" 
d="M389 477h43q-7 23 -27.5 38.5t-46.5 15.5q-31 0 -53.5 -22.5t-22.5 -54t22.5 -54t53.5 -22.5q26 0 46 15l-34 42q-11 12 -4 27t23 15zM471 393l47 -57h126l74 89h-235q-4 -17 -12 -32zM512 812q-104 0 -199 -40.5t-163.5 -109t-109 -163.5t-40.5 -199t40.5 -199
t109 -163.5t163.5 -109t199 -40.5t199 40.5t163.5 109t109 163.5t40.5 199t-40.5 199t-109 163.5t-163.5 109t-199 40.5zM793 435l-188 -226h2v-153h76q11 0 18.5 -7.5t7.5 -18t-7.5 -18t-18.5 -7.5h-204q-11 0 -18.5 7.5t-7.5 18t7.5 18t18.5 7.5h76v153h2l-120 145
q-35 -28 -79 -28q-53 0 -90 37.5t-37 90.5t37 90.5t90 37.5q47 0 82.5 -30t43.5 -75h289q16 0 23 -15t-3 -27z" />
    <glyph glyph-name="uniE605" unicode="&#xe605;" 
d="M601 748h-179q-12 0 -21 -8.5t-9 -21.5v-179q0 -12 9 -21t21 -9h179q12 0 21 9t9 21v179q0 13 -9 21.5t-21 8.5zM929 748h-179q-12 0 -21 -8.5t-9 -21.5v-179q0 -12 9 -21t21 -9h179q12 0 21 9t9 21v179q0 13 -9 21.5t-21 8.5zM273 748h-179q-13 0 -21.5 -8.5t-8.5 -21.5
v-179q0 -12 8.5 -21t21.5 -9h179q12 0 21 9t9 21v179q0 13 -9 21.5t-21 8.5zM601 420h-179q-12 0 -21 -9t-9 -21v-179q0 -12 9 -21t21 -9h179q12 0 21 9t9 21v179q0 12 -9 21t-21 9zM929 420h-179q-12 0 -21 -9t-9 -21v-179q0 -12 9 -21t21 -9h179q12 0 21 9t9 21v179
q0 12 -9 21t-21 9zM273 420h-179q-13 0 -21.5 -9t-8.5 -21v-179q0 -12 8.5 -21t21.5 -9h179q12 0 21 9t9 21v179q0 12 -9 21t-21 9zM601 92h-179q-12 0 -21 -9t-9 -21v-179q0 -12 9 -21t21 -9h179q12 0 21 8.5t9 21.5v179q0 12 -9 21t-21 9zM929 92h-179q-12 0 -21 -9
t-9 -21v-179q0 -13 9 -21.5t21 -8.5h179q13 0 21.5 8.5t8.5 21.5v179q0 12 -8.5 21t-21.5 9zM273 92h-179q-13 0 -21.5 -9t-8.5 -21v-179q0 -13 8.5 -21.5t21.5 -8.5h179q12 0 21 8.5t9 21.5v179q0 12 -9 21t-21 9z" />
    <glyph glyph-name="uniE606" unicode="&#xe606;" 
d="M928 388q19 13 24 25.5t5 32.5v145q0 35 -24.5 60t-59.5 25h-723q-35 0 -60 -25t-25 -60v-145q0 -21 6 -34.5t26 -24.5q65 -31 65 -85q0 -38 -17.5 -57t-45.5 -28l-2 -1q-32 -20 -32 -59v-144q0 -35 25 -60t60 -25h723q35 0 59.5 25t24.5 60v144q0 23 -6.5 34.5
t-23.5 24.5q-37 19 -51.5 37.5t-14.5 48t14 47.5t53 39zM668 314q0 -10 -7 -17t-17 -7h-96v-24h96q10 0 17 -7t7 -17v-24q0 -11 -7 -18t-17 -7h-96v-72q0 -10 -7 -17t-17 -7h-25q-10 0 -17 7t-7 17v72h-96q-10 0 -17 7t-7 18v24q0 10 7 17t17 7h96v24h-96q-10 0 -17 7t-7 17
v24q0 10 7 17t17 7h63l-80 86q-6 7 -6 17t6 16l15 17q7 7 17 7t17 -7l100 -108l101 108q6 7 16.5 7t16.5 -7l16 -17q6 -7 6 -16.5t-6 -16.5l-80 -86h63q10 0 17 -7t7 -17v-24z" />
    <glyph glyph-name="uniE607" unicode="&#xe607;" horiz-adv-x="1698" 
d="M857 -211q-131 0 -247.5 27t-198.5 67t-153 95.5t-112.5 102t-75.5 97.5t-44 72t-16 34l-10 26l14 24q8 13 21.5 33t54 69.5t87.5 94.5t120.5 98.5t153 92t186.5 64.5t220 26t219 -26.5t184.5 -66t150.5 -93t117.5 -100t84 -95.5t52 -70.5t19.5 -33.5l13 -23l-9 -24
q-5 -13 -14.5 -33.5t-42 -71.5t-72.5 -97t-109 -101t-149.5 -94.5t-197 -66.5t-246.5 -27zM126 301q13 -25 30 -52t51 -68t73.5 -77t99.5 -74.5t127 -66t158.5 -45t191.5 -17.5t190.5 17.5t157 44.5t125 65t96.5 74t70.5 76.5t48.5 66.5t28 51q-16 24 -36 50t-58 68
t-80 78.5t-102.5 76t-124.5 67.5t-146.5 46t-168.5 18t-169 -17.5t-148 -45t-127 -66.5t-105 -75t-83 -77t-61 -67.5t-38 -50.5zM849 -67q-100 0 -184.5 49t-134 134t-49.5 184.5t49.5 184.5t134 134t184.5 49t184.5 -49t133.5 -134t49 -184.5t-49 -184.5t-133.5 -134
t-184.5 -49zM849 557q-106 0 -181 -75.5t-75 -181.5t75 -181t181 -75t181 75t75 181t-75 181.5t-181 75.5z" />
    <glyph glyph-name="uniE608" unicode="&#xe608;" 
d="M512 812q-104 0 -199 -40.5t-163.5 -109t-109 -163.5t-40.5 -199t40.5 -199t109 -163.5t163.5 -109t199 -40.5t199 40.5t163.5 109t109 163.5t40.5 199t-40.5 199t-109 163.5t-163.5 109t-199 40.5zM512 -157q-93 0 -177.5 36t-146 97.5t-97.5 146t-36 177.5t36 177.5
t97.5 146t146 97.5t177.5 36t177.5 -36t146 -97.5t97.5 -146t36 -177.5t-36 -177.5t-97.5 -146t-146 -97.5t-177.5 -36zM636 568l-81 -150q-33 -60 -40 -81h-2q-21 49 -121 231h-76l142 -245h-117v-54h137v-74h-137v-55h137v-108h68v109h132v54h-132v75h132v54h-113l143 244
h-72z" />
    <glyph glyph-name="uniE609" unicode="&#xe609;" 
d="M273 50l73 424l-150 -88q-6 -5 -13 -5.5t-10 1.5l-4 3l-76 118q-4 7 -4 13t1 9l2 2l179 105q10 10 30.5 16.5t36.5 8.5l16 2h51q0 -28 10.5 -49.5t26.5 -31.5t31.5 -16.5t26.5 -8.5l11 -1q23 0 40.5 6t28.5 15.5t19 21t11.5 22.5t5.5 20.5t3 15.5v6h51q26 0 46.5 -6.5
t27.5 -13.5l7 -7l179 -105q1 -1 2.5 -1.5t3 -5t-4.5 -11.5q-70 -117 -76 -124q-5 -5 -11 -5.5t-10 2.5l-4 2l-162 91l81 -426q-93 -32 -238 -39q-32 0 -68.5 4t-65.5 10t-53 12t-38 10zM273 50z" />
    <glyph glyph-name="uniE60A" unicode="&#xe60a;" 
d="M791 -28h-714v695h549v-36h-513v-623h641v477h37v-513zM905 780l26 -26l-400 -400l-26 26zM933 556l-37 2l12 199l-199 -11l-3 36l241 14z" />
    <glyph glyph-name="uniE60B" unicode="&#xe60b;" 
d="M512 851q-100 0 -190.5 -38.5t-156 -104t-104.5 -156.5t-39 -190.5t39 -190t104.5 -156t156 -104.5t190.5 -39t190.5 39t156 104.5t104.5 156t39 190t-39 190.5t-104.5 156.5t-156 104t-190.5 38.5zM512 -97q-93 0 -178 36.5t-146.5 98t-98 146t-36.5 178t36.5 178.5
t98 146.5t146.5 97.5t178 36t178 -36t146.5 -97.5t98 -146.5t36.5 -178.5t-36.5 -178t-98 -146t-146.5 -98t-178 -36.5zM360 613v-500h326v500h-326zM658 139h-270v448h270v-448zM407 562v-345h231v345h-231zM611 242h-177v294h177v-294zM521 210q-14 0 -23.5 -9.5
t-9.5 -23.5t9.5 -23.5t23.5 -9.5t23.5 9.5t9.5 23.5t-9.5 23.5t-23.5 9.5zM521 162q-6 0 -10 4.5t-4 10.5t4 10t10 4t10.5 -4t4.5 -10t-4.5 -10.5t-10.5 -4.5z" />
    <glyph glyph-name="uniE60C" unicode="&#xe60c;" 
d="M939 242q-8 0 -13.5 5.5t-5.5 13.5q0 111 -55 205t-149 149t-205 55t-205 -55t-149 -149t-55 -205q0 -8 -5.5 -13.5t-13.5 -5.5t-14 5.5t-6 13.5q0 91 35.5 174t95.5 143t143 95.5t174 35.5t174 -35.5t142.5 -95.5t95.5 -143t36 -174q0 -8 -6 -13.5t-14 -5.5zM808 308
q-14 13 -28 10q-9 -2 -30 -8t-39 -10t-32 -4h-159q-10 0 1 -11q29 -29 32 -50q4 -25 -23.5 -47t-44.5 -22h-60q-5 0 -17 10.5t-26 34t-17 51.5q-5 41 19.5 100t37.5 63q6 2 17 2t19 -1l8 -1l2 17q-1 5 -6 5l-41 -1q-7 12 -17 23q4 50 23 64q2 -9 4.5 -15t5 -8.5t5 -4
t4.5 -2.5h1v81q-2 -1 -5.5 -3t-9.5 -11t-6 -21q-30 -12 -36 -69q-9 3 -18.5 2.5t-17.5 -2.5l-8 -2v-1q-6 -1 -14 8.5t-12 8.5t-4 -20t3 -37t7 -16q8 3 23 15q12 -12 9 -19q-1 -2 -6 -2t-11 -3q-73 -50 -79 -137q-11 -2 -38 -18.5t-47.5 -35t-11.5 -25.5q3 -1 24 -2
q-15 -21 -15 -47q0 -34 24.5 -58.5t59.5 -24.5q25 0 46 14.5t31 37.5q28 -22 51 -22h104h109h1v0h1h1h4q10 2 17 10t7 19q0 9 -5 16q-22 0 -37.5 20.5t-15.5 48.5t15.5 48t38.5 20h1q-30 -16 -30 -52q0 -25 15.5 -42.5t38.5 -17.5q11 10 21 21q3 1 7 2q-11 -19 -11 -41
q0 -34 24.5 -58.5t59 -24.5t58.5 24.5t24 58.5q0 31 -20 55q32 -7 32 -64h10q5 26 3 49t-4.5 39.5t-9.5 31t-12 23.5t-12 16t-9.5 9t-3.5 3zM257.5 124q-9.5 0 -16 7t-6.5 16.5t6.5 16t16 6.5t16.5 -6.5t7 -16t-7 -16.5t-16.5 -7zM751.5 123q-9.5 0 -16.5 7t-7 16.5t7 16
t16.5 6.5t16 -6.5t6.5 -16t-6.5 -16.5t-16 -7zM520 311h159q15 0 57 12q37 10 49 10h6q-10 20 -65 44q-27 11 -118.5 11.5t-101.5 -11.5q-8 -9 -8.5 -35.5t4.5 -39.5q5 9 18 9z" />
    <glyph glyph-name="uniE60D" unicode="&#xe60d;" 
d="M539 799zM442 799q0 40 28.5 68.5t68.5 28.5t68.5 -28.5t28.5 -68.5t-28.5 -68.5t-68.5 -28.5t-68.5 28.5t-28.5 68.5zM965 362q-2 0 -18 -1v38q0 7 -4.5 11.5t-10.5 4.5t-10.5 -4.5t-4.5 -11.5v-39q-1 0 -1 -1v71q0 13 -9 22t-22 9t-22 -9t-9 -22v-74q-18 -1 -48 -4h-2
h-1q-7 24 -42 93q-65 130 -89 210q-3 10 -11.5 16t-19.5 6q-105 13 -210 -1q-3 0 -5 -2q-16 -5 -21 -21q-22 -76 -108 -234q-23 -44 -30 -59q-2 -2 -4 -6q-17 1 -40 3v73q0 13 -9 22t-22 9t-22 -9t-9 -22v-29q-1 14 -15 14q-6 0 -10.5 -4.5t-4.5 -11.5v-38q-5 0 -9 0.5
t-6 0.5h-3h-1q-8 0 -14 -6t-6.5 -14.5t5.5 -14.5t14 -6q2 0 20 -1v-37q0 -6 4.5 -10.5t10.5 -4.5t10.5 4t4.5 10v-30q0 -13 9 -22t22 -9t22 9t9 22v63q5 0 16 -0.5t15 -1.5l2 -6q6 -14 21 -19q4 -1 9 -1q22 0 29 21q79 -7 138 -18q-2 -27 -2 -37q-7 -138 -12 -198
q-7 -82 -15 -104q-14 -12 -10 -30q2 -10 10.5 -17t19.5 -7q3 0 6 1q19 4 29 26q5 10 8 28q6 28 11 78q6 64 14 220q0 4 0.5 13t1.5 14q8 -3 19 -6q2 -1 6 -1q3 0 6 1q6 1 20 5q1 -5 1.5 -13.5t0.5 -11.5q13 -158 21 -220q6 -51 12 -78q12 -47 37 -54q4 -1 8 -1q10 0 18.5 6
t10.5 17q5 19 -10 31q-8 22 -18 104q-7 62 -18 199q-2 25 -2 34q55 9 126 17q9 -12 24 -13h1q20 0 28 18q30 2 49 4v-63q0 -12 9 -21t22 -9t22 9t9 21v67h1v-36q0 -6 4.5 -10.5t10.5 -4.5t10.5 4.5t4.5 10.5v37q5 0 10 0.5t7 0.5h3q8 0 14 6t5.5 14.5t-6.5 14.5t-15 6z
M706 417q23 -45 31 -63q1 -2 3 -8q-54 -6 -96 -13q-1 26 -22 166l15 69q22 -56 69 -151zM351 389q63 116 90 181l15 -71q-21 -138 -22 -164q-45 7 -105 13q7 14 22 41z" />
    <glyph glyph-name="uniE60E" unicode="&#xe60e;" 
d="M512 384zM5 384h1014h-1014zM434 428h176q17 0 29.5 12.5t12.5 29.5v137q0 18 -12.5 30.5t-29.5 12.5h-176q-17 0 -29.5 -12.5t-12.5 -30.5v-137q0 -17 12.5 -29.5t29.5 -12.5zM421 607q0 6 4 10t9 4h176q5 0 9 -4t4 -10v-137q0 -5 -4 -9t-9 -4h-176q-5 0 -9 4t-4 9v137z
M727 486h-28q-18 0 -32.5 -13.5t-14.5 -30.5v-26q-7 2 -13 2h-234q-6 0 -13 -2v26q0 18 -12 31t-30 13h-28q-18 0 -32 -13.5t-14 -30.5v-235q0 -17 14 -33t32 -16h31v-20h39v20h270v-20h39v20h26q18 0 29.5 15.5t11.5 33.5v235q0 18 -11.5 31t-29.5 13zM392 376q0 5 4 9t9 4
h234q5 0 9 -4t4 -9v-70q0 -5 -4 -9t-9 -4h-234q-5 0 -9 4t-4 9v70zM739 207q0 -7 -4 -13.5t-8 -6.5h-405q-5 0 -11 7t-6 13v235q0 5 5.5 10t11.5 5h28q6 0 9.5 -5t3.5 -10v-178h42h234h42v42v70v66q0 5 6 10t12 5h28q6 0 9 -4.5t3 -10.5v-235z" />
    <glyph glyph-name="uniE60F" unicode="&#xe60f;" horiz-adv-x="1134" 
d="M13 725l386 1q11 0 13 9l35 117q24 48 71 43l253 1v-50h-240q-25 -4 -33 -26l-24 -79q-4 -17 9 -15h81l-45 -754h-456zM130 -128l903 4q11 2 29.5 3t25.5 1.5t18 4.5t15 10.5t8 19.5t5 32l-1134 -5q0 -20 7 -33.5t15.5 -20.5t27.5 -10.5t32 -4t40 -1.5h8zM653 -27l357 2
q47 5 63 31t19 88h-522q-2 -60 14.5 -87t68.5 -34zM627 273q-67 -5 -70 -73q4 -63 70 -71q32 2 53 22q25 -21 56 -23q32 0 48 19q15 -18 49 -18t51 17q18 -18 50 -19q26 4 47 19q22 -21 57 -18q67 14 63 80q-10 62 -68 65q-27 3 -54 -20q-21 22 -51 18q-23 5 -48 -17
q-14 16 -44 18q-29 1 -48 -18q-2 -1 -5 0q-18 19 -53 19q-28 1 -48 -23q-25 27 -55 23zM685 432q-119 -12 -114 -126h520q-6 116 -104 126h-302zM68 666l8 -143q3 -11 14 -10l252 2q9 0 12 8l37 140q-1 8 -8 9h-307q-7 0 -8 -6zM503 524l8 139q-3 9 -11 9l-38 1
q-8 -1 -11 -9l-39 -138q1 -9 8 -9l76 1q7 0 7 6z" />
    <glyph glyph-name="uniE610" unicode="&#xe610;" 
d="M512 892q-104 0 -198.5 -40.5t-163 -108.5t-109 -162t-40.5 -197t40.5 -197t109 -162t163 -108.5t198.5 -40.5t198.5 40.5t163 108.5t109 162t40.5 197t-40.5 197t-109 162t-163 108.5t-198.5 40.5zM657 527q-15 -44 -57 -108q-43 -66 -135 -172q-9 -11 -131 -136h-21
q-14 370 -59 462q-15 30 -49 30q-14 0 -42 -5l-4 20l170 37q19 -44 30 -89q16 -66 26 -156q4 -45 13 -193q74 82 87 100q76 102 90 123q19 31 27 54q6 18 6 33.5t-27 34.5q-28 20 -28 45q0 18 15 33t36 15q24 0 44 -21q18 -20 18 -50t-9 -57zM807 125h-37v245l-49 -26l-8 29
l62 33h33zM807 125z" />
    <glyph glyph-name="uniE611" unicode="&#xe611;" 
d="M512 884q-102 0 -195.5 -40t-160.5 -106.5t-107 -159t-40 -194.5t40 -194.5t107 -159t160.5 -106.5t195.5 -40t195.5 40t160.5 106.5t107 159t40 194.5t-40 194.5t-107 159t-160.5 106.5t-195.5 40zM655 525q-15 -44 -56 -107t-133 -169q-12 -13 -128 -133h-22
q-14 363 -58 454q-14 29 -48 29q-15 0 -41 -5l-4 20l167 36q18 -43 29 -87q16 -64 25 -154q5 -47 13 -190q72 79 86 98q75 101 88 121q19 30 27 54q6 17 6 32t-26 35q-27 20 -27 44q0 18 14.5 32.5t35.5 14.5q24 0 42.5 -20t18.5 -49t-9 -56zM862 130h-177v23l29 28
q58 54 80.5 84.5t23.5 59.5q0 24 -13.5 39t-42.5 15q-30 0 -58 -23l-12 26q33 28 78 28q42 0 63.5 -23.5t21.5 -56.5q0 -35 -22.5 -67.5t-72.5 -80.5l-23 -20v-1h125v-31zM862 130z" />
    <glyph glyph-name="uniE612" unicode="&#xe612;" 
d="M512 879q-101 0 -193.5 -39t-159.5 -105.5t-106.5 -158t-39.5 -192.5t39.5 -192.5t106.5 -158t159.5 -105.5t193.5 -39t193.5 39t159.5 105.5t106.5 158t39.5 192.5t-39.5 192.5t-106.5 158t-159.5 105.5t-193.5 39zM654 523q-16 -43 -56 -105q-41 -63 -132 -168
q-9 -10 -127 -132h-21q-14 361 -58 450q-14 29 -48 29q-14 0 -40 -5l-4 20l165 36q18 -43 29 -86q16 -65 25 -153q5 -47 13 -188q71 77 86 97q75 102 87 120q19 30 26 53q7 18 7 32.5t-27 34t-27 43.5q0 18 15 33q15 14 35 14q24 0 42.5 -19.5t18.5 -48.5q0 -30 -9 -57z
M754 127q-44 0 -72 18l10 29q28 -17 61 -17t48 16t15 37q-1 27 -21.5 41t-49.5 14h-21v27h21q23 0 42 12t19 35q0 17 -12 29t-36 12q-30 0 -55 -18l-10 27q29 21 72 21q38 0 58.5 -19t20.5 -47q0 -46 -51 -64v-1q26 -5 43.5 -23.5t17.5 -46.5q0 -35 -26.5 -58.5t-73.5 -23.5
zM754 127z" />
    <glyph glyph-name="uniE613" unicode="&#xe613;" 
d="M778 328l-68 -94h91v92q0 21 1 43h-1q-10 -18 -23 -41zM778 328zM512 884q-102 0 -195.5 -39.5t-160.5 -106.5t-107 -159.5t-40 -194.5t40 -194.5t107 -159.5t160.5 -106.5t195.5 -39.5t195.5 39.5t160.5 106.5t107 159.5t40 194.5t-40 194.5t-107 159.5t-160.5 106.5
t-195.5 39.5zM655 525q-15 -44 -56 -107q-42 -63 -133 -169q-12 -13 -129 -133h-21q-14 364 -58 454q-14 29 -48 29q-15 0 -41 -5l-4 20l167 36q18 -43 29 -87q15 -64 25 -154q5 -47 13 -190q71 77 86 98q75 101 88 121q20 31 27 54q6 16 6 32q0 15 -27 35t-27 44
q0 18 15 32.5t35 14.5q24 0 43 -20q18 -20 18 -49q1 -28 -8 -56zM836 205v-75h-35v75h-129v24l124 176h40v-171h39v-29h-39zM836 205z" />
    <glyph glyph-name="uniE614" unicode="&#xe614;" 
d="M512 879q-101 0 -193.5 -39t-159.5 -105.5t-106.5 -158t-39.5 -192.5t39.5 -192.5t106.5 -158t159.5 -105.5t193.5 -39t193.5 39t159.5 105.5t106.5 158t39.5 192.5t-39.5 192.5t-106.5 158t-159.5 105.5t-193.5 39zM654 523q-16 -43 -56 -105q-41 -63 -132 -168
q-10 -11 -127 -132h-22q-13 361 -57 450q-14 29 -48 29q-15 0 -41 -5l-4 20l166 36q18 -43 29 -86q16 -65 25 -153q5 -47 13 -188q71 77 85 97q76 102 88 120q19 30 26 53q6 18 6 32.5t-26 34.5q-27 19 -27 43q0 18 15 32q15 15 34 15q25 0 43 -20t18 -49q1 -28 -8 -56z
M751 127q-43 0 -69 17l9 28q26 -15 59 -15q27 0 46 16.5t19 42.5q0 28 -19.5 44t-59.5 16q-14 0 -38 -2l18 131h132v-31h-105l-11 -70q13 1 22 1q35 0 60 -15q39 -22 39 -70q0 -40 -29 -66.5t-73 -26.5zM751 127z" />
    <glyph glyph-name="uniE615" unicode="&#xe615;" 
d="M775 283q-16 0 -31 -9.5t-22 -24.5q-5 -7 -5 -16q1 -36 17 -57.5t44 -21.5q25 0 40 18t15 48q0 29 -15.5 46t-42.5 17zM512 884q-102 0 -195.5 -40t-160.5 -106.5t-107 -159t-40 -194.5t40 -194.5t107 -159t160.5 -106.5t195.5 -40t195.5 40t160.5 106.5t107 159
t40 194.5t-40 194.5t-107 159t-160.5 106.5t-195.5 40zM655 525q-15 -44 -56 -107q-42 -64 -133 -169q-12 -13 -128 -133h-22q-14 363 -58 454q-14 29 -48 29q-15 0 -41 -5l-4 20l167 36q18 -43 29 -87q16 -64 25 -154q5 -47 13 -190q73 81 86 98q75 101 88 121q19 30 27 54
q6 17 6 32t-26 35q-27 20 -27 44q0 18 14.5 32.5t34.5 14.5q25 0 43 -20q19 -20 19 -49t-9 -56zM778 125q-44 0 -71 32t-27 85q0 78 47 124q35 34 89 41q14 2 27 2v-30q-13 0 -28 -2q-42 -7 -66.5 -34t-30.5 -64h2q24 32 67 32q37 0 60 -24.5t23 -64.5t-25 -68.5t-67 -28.5z
M778 125z" />
    <glyph glyph-name="uniE616" unicode="&#xe616;" horiz-adv-x="1026" 
d="M514 896q-104 0 -199 -40.5t-163.5 -109t-109 -163.5t-40.5 -199t40.5 -199t109 -163.5t163.5 -109t199 -40.5t198.5 40.5t163.5 109t109.5 163.5t40.5 199t-40.5 199t-109.5 163.5t-163.5 109t-198.5 40.5zM514 -87q-96 0 -183.5 37.5t-150.5 100.5t-100 150t-37 183
t37 183t100 150t150.5 100.5t183.5 37.5t183 -37.5t150 -100.5t100.5 -150t37.5 -183t-37.5 -183t-100.5 -150t-150 -100.5t-183 -37.5zM714 211l-28 -28l-100 100l28 28q11 11 22 0l78 -77q11 -12 0 -23zM417 278q-40 41 -65 80t-33.5 66t-9 50.5t4 35.5t9.5 20l102 -102
q-16 -16 16 -55q31 -39 71 -71q15 -12 23.5 -18.5t17 -10.5t14.5 -3.5t11 5.5l100 -99q-6 -6 -19 -11t-37.5 -4t-53 10.5t-69 36.5t-82.5 70zM461 464l-28 -28l-102 101l28 28q11 11 22 0l80 -79q11 -11 0 -22z" />
    <glyph glyph-name="uniE617" unicode="&#xe617;" 
d="M566 644l104 -196h106l-127 240q-13 26 -42 26q-19 0 -32.5 -14t-13.5 -33q0 -12 6 -23h-1zM461 644q6 11 6 23q0 19 -14 33t-33 14q-29 0 -42 -26l-126 -240h105zM1013 355v3v2q0 1 -1 2q-2 16 -14 27t-28 12h-909q-19 0 -33 -13.5t-14 -33t14 -33t33 -13.5h42l100 -402
q4 -16 16.5 -26t28.5 -10h1h530q16 0 28.5 10t16.5 26l101 402h41q20 0 33.5 13.5t13.5 32.5v1zM373 11q0 -20 -13.5 -33.5t-33 -13.5t-33 13.5t-13.5 33.5v250q0 19 13.5 33t33 14t33 -14t13.5 -33v-250zM561 11q0 -20 -14 -33.5t-33.5 -13.5t-33 13.5t-13.5 33.5v250
q0 19 13.5 33t33 14t33.5 -14t14 -33v-250zM748 11q0 -20 -14 -33.5t-33 -13.5t-33 13.5t-14 33.5v250q0 19 14 33t33 14t33 -14t14 -33v-250z" />
    <glyph glyph-name="uniE618" unicode="&#xe618;" 
d="M930 615h-262q26 16 41 42.5t15 57.5q0 49 -35 83.5t-83 34.5q-59 0 -94 -47q-36 47 -94 47q-49 0 -83.5 -34.5t-34.5 -83.5q0 -31 15 -57.5t41 -42.5h-262q-12 0 -20.5 -8.5t-8.5 -20.5v-151q0 -12 8.5 -20.5t20.5 -8.5h26v-381q0 -37 25.5 -62.5t61.5 -25.5h610
q36 0 61.5 25.5t25.5 62.5v381h26q12 0 20.5 8.5t8.5 20.5v151q0 12 -8.5 20.5t-20.5 8.5zM606 814q41 0 70 -29t29 -70q0 -33 -20 -60t-52 -36q-14 -3 -27 -3q-2 0 -3 -1h-82v151q13 23 36 35.5t49 12.5zM418 616q-14 0 -27 3q-32 9 -52 36t-20 60q0 41 29 70t70 29
q26 0 48.5 -12.5t35.5 -33.5v-153h-81q-1 1 -3 1zM83 435v151q0 5 3 8t8 3h408v-172h-408q-5 0 -8 3t-3 7zM139 25v381h363v-450h-295q-28 0 -48 20t-20 49zM885 25q0 -29 -20 -49t-48 -20h-296v450h364v-381zM941 435q0 -4 -3 -7t-8 -3h-409v172h409q5 0 8 -3t3 -8v-151z
" />
    <glyph glyph-name="uniE619" unicode="&#xe619;" 
d="M713 64zM820 406l-82 -235q-9 -25 -30 -40t-47 -15h-322q-29 0 -51.5 19t-27.5 48l-55 280l-18 84h-60q-8 0 -13 5t-5 12.5t5 12.5t13 5h74h1h1q1 -1 3 -1.5t3 -1t2.5 -1.5t2.5 -2.5t2 -2.5q1 -2 1 -3t1 -2l18 -84h530q30 0 47 -24.5t7 -53.5v0zM327 78q29 0 49.5 -21
t20.5 -50.5t-20.5 -50t-49.5 -20.5t-49.5 21t-20.5 50t20.5 50t49.5 21v0zM637 78q29 0 49.5 -21t20.5 -50.5t-20.5 -50t-49.5 -20.5t-49.5 21t-20.5 50t20.5 50t49.5 21v0zM637 78zM765 833q-62 0 -106 -42t-43 -102q0 -59 43 -102v-33v-32v-12l66 38q21 -5 40 -5
q62 0 106 42t44 102.5t-44 103t-106 42.5zM685 664q-11 0 -18.5 8t-7.5 18.5t7.5 18.5t18.5 8t18.5 -8t7.5 -18q0 -12 -7.5 -19.5t-18.5 -7.5zM765 664q-11 0 -18.5 8t-7.5 18.5t7.5 18.5t18.5 8t18.5 -8t7.5 -18q0 -12 -7.5 -19.5t-18.5 -7.5zM845 664q-11 0 -18.5 8
t-7.5 18.5t7.5 18.5t18.5 8t18.5 -8t7.5 -18q0 -12 -7.5 -19.5t-18.5 -7.5zM845 664z" />
    <glyph glyph-name="uniE61A" unicode="&#xe61a;" 
d="M200 344l-2 6l-1 6l-1 4v5v5v5l1 6l2 7l2 6l3 8l4 8l5 7v6l1 5l1 7l2 7l2 9l2 4l2 3l2 4l3 3v5v7v7l2 10l1 11l3 14l4 14l3 8l3 9l3 8l4 8l4 9l4 9l6 9l6 10l3 5l3 4l7 10l7 10l8 10l8 10l10 10l9 10l12 10l7 7l9 7l10 6l10 6l9 5l11 5l11 5l12 4l11 4l12 4l12 2l13 3
l13 2l13 2l13 1l14 1h13h13h14l14 -1l13 -2l14 -2l13 -3l13 -3l13 -3l14 -4l13 -4l12 -5l13 -6l12 -6l12 -6l11 -8l10 -6l4 -4l5 -3l9 -8l8 -7l7 -8l8 -8l6 -9l7 -8l5 -9l5 -8l6 -10l4 -8l8 -17l4 -9l3 -9l3 -9l2 -8l2 -8l2 -8l5 -16l2 -13l2 -13l1 -10l3 -16v-3l2 -3l5 -8
l3 -6l3 -5l4 -7l3 -7l2 -8l3 -8l1 -9l1 -4l1 -5v-5l-1 -4v-6l-1 -5l-3 -11l-2 -5l-2 -6v-2l1 -1l2 -5l12 -17l10 -14l4 -9l6 -9l6 -11l6 -11l6 -13l7 -15l4 -8l3 -9l3 -9l3 -8l3 -9l2 -8l3 -16l2 -16l2 -14v-8v-7v-6l-1 -7l-2 -12l-2 -11l-3 -10l-1 -5l-3 -4l-2 -4l-2 -4
l-3 -3l-2 -3l-3 -3l-3 -2l-3 -2l-3 -1l-2 -1h-2h-2l-2 1l-5 2l-2 1l-2 2l-3 2l-2 3l-4 4l-5 6l-3 6l-4 6l-4 6l-5 10l-5 11l-1 1h-1l-2 -2l-2 -3l-2 -4l-4 -10l-6 -16l-7 -18l-6 -9l-6 -10l-7 -10l-7 -11l-4 -5l-5 -5l-10 -10l1 -1l1 -2l5 -3l23 -10l9 -6l9 -5l10 -7l8 -7
l4 -3l3 -3l3 -5l2 -4l1 -4l2 -4l1 -4l1 -5l-1 -3v-3l-1 -3l-2 -3v-2l-2 -3l-4 -5l-3 -5l-3 -3l-3 -2l-6 -5l-7 -4l-7 -4l-8 -3l-9 -3l-5 -2l-4 -1l-10 -3l-11 -2l-10 -2l-12 -2h-12l-12 -2h-12h-13h-13l-14 1l-12 1l-14 2l-14 1l-14 2l-14 4l-13 3l-14 3l-14 5l-13 4l-7 3
l-7 2l-4 2h-4h-5h-6l-13 1l-7 1l-8 1l-6 -5l-7 -5l-10 -5l-11 -6l-7 -3l-7 -3l-16 -6l-8 -2l-9 -3l-13 -2l-7 -1h-8l-9 -1l-10 -1h-9h-10h-22l-22 1l-23 2l-11 2l-11 1l-10 2l-11 2l-10 3l-10 2l-9 4l-8 3l-8 4l-7 4l-6 5l-3 2l-3 3l-2 3l-2 3l-2 3l-1 3l-2 6l-1 3l-1 4v3
l1 4v3l1 4v2v6v4l2 4l1 5l3 5l2 2l1 3l5 5l3 2l3 2l3 3l5 1l3 2l5 3l5 1l6 2l6 1l6 1l6 1l8 1h2l1 1v1l-1 2l-4 2l-10 8l-7 6l-7 6l-8 8l-8 10l-10 10l-3 6l-5 6l-4 7l-3 8l-5 7l-3 9l-4 8l-4 9l-2 9l-3 11l-1 1h-1v1h-1l-1 -1l-1 -1l-1 -2l-1 -2l-1 -2l-1 -3l-5 -8l-2 -5
l-4 -4l-4 -5l-4 -6l-5 -5l-5 -5l-5 -5l-6 -3l-6 -4l-6 -2l-7 -2l-6 -1h-1h-1l-1 1l-2 2l-2 2l-2 6l-2 4l-2 4l-1 6l-1 5l-2 11l-1 7v7v15l1 17l1 8l2 9l1 10l3 8l3 10l3 10l4 10l3 10l6 10l4 10l6 10l7 11l7 10l7 11l7 7l7 9l9 8l3 4l5 5l7 6l7 6l11 10l9 6z" />
    <glyph glyph-name="uniE61B" unicode="&#xe61b;" 
d="M-57 853zM743 324q-16 4 -21 10.5t-2 11.5l3 6q2 1 3 3.5t4 9.5t5 14t3 17.5t-0.5 20t-6.5 20.5t-14 20q-16 15 -40.5 19.5t-49.5 0.5t-47 -10t-36 -11l-15 -7q-11 -3 -18 -4t-11 0.5t-6 3t-1.5 7.5t1 10.5t2.5 14t3 15.5q0 13 -1.5 24.5t-7 26t-16 23t-26.5 14
t-41.5 3.5t-57.5 -13q-38 -13 -78 -39t-69 -54.5t-53.5 -54.5t-37.5 -43l-12 -18q-36 -47 -54 -94.5t-17 -71.5v-23q7 -53 33 -95t62 -68t84.5 -44.5t93 -26.5t94.5 -11q81 -7 169 12.5t163.5 66.5t106.5 114q19 38 19.5 72.5t-12 56t-31.5 38t-36 24t-31 9.5zM407 -19
q-119 -5 -202.5 46.5t-83.5 131.5q0 78 83 135t203 62.5t203 -40t83 -123.5q0 -79 -84.5 -142.5t-201.5 -69.5zM375 287q-32 -3 -57.5 -15t-40 -26.5t-24.5 -32t-13.5 -34t-4.5 -30t-1 -21.5l1 -9v-4q0 -3 2 -13t6 -18.5t12.5 -18.5t21.5 -16q72 -36 135 -22t102 64
q15 18 20 46t-2 56t-24.5 51t-52.5 35.5t-80 7.5zM335 78q-7 -1 -13 -0.5t-11 2.5t-9.5 4t-8 6t-6.5 7.5t-4.5 9t-1.5 10.5q0 12 6.5 23.5t18 20t26.5 9.5q10 1 19.5 -0.5t16 -5.5t11.5 -9t7 -11.5t2 -14.5q0 -12 -7 -23t-19.5 -18.5t-26.5 -9.5zM429 158q-8 -6 -16 -5.5
t-12 7.5l-2 4q-1 3 -1 5v4q0 4 1 6l2 4q1 2 4 3l3 5q9 7 17 5.5t12 -8.5q3 -5 2.5 -10.5t-3.5 -10.5t-7 -9zM821 388q6 0 11.5 3.5t9 8.5t4.5 10q1 2 1 4q13 126 -88 143q-30 6 -55 1q-8 0 -13.5 -3.5t-9.5 -10t-4 -12.5q0 -11 8 -19t19 -8q86 20 92 -55q2 -19 -2 -35
q0 -11 8 -19t19 -8zM802 700q-49 11 -130 -5q-1 0 -3 -1l-1 -2l-1 -1q-12 -4 -19.5 -14.5t-7.5 -22.5q0 -16 11 -27t26 -11h3q2 0 5.5 1t8 1.5t9.5 2t9 3.5t15 2t27 -2t35 -8.5t38.5 -16.5t39 -27.5t33.5 -40.5q29 -65 11 -126q0 -1 -0.5 -2t-1.5 -5.5t-2 -8.5l-3 -10
q-1 -6 -1 -10q0 -10 5.5 -17t14 -9.5t19.5 -2.5q31 0 36 37q14 43 15.5 82.5t-5.5 69t-21.5 55.5t-33.5 44.5t-42 33t-44.5 23.5t-44.5 15z" />
    <glyph glyph-name="uniE61C" unicode="&#xe61c;" 
d="M693 465q15 0 35 -2q-23 109 -127.5 181.5t-238.5 72.5q-98 0 -181 -40.5t-132 -111.5t-49 -156q0 -143 145 -245l-36 -109l127 64q6 -2 25 -5.5t27 -5t22.5 -4t26.5 -3t25 -0.5q16 0 34 1q-11 38 -11 76q0 119 89.5 203t218.5 84zM498 563q21 0 33.5 -12.5t12.5 -33
t-12.5 -33t-33.5 -12.5t-37.5 13t-16.5 32.5t16.5 32.5t37.5 13zM245 472q-22 0 -38.5 13t-16.5 32.5t16.5 32.5t38.5 13q20 0 32.5 -12.5t12.5 -33t-12.5 -33t-32.5 -12.5zM1024 182q0 71 -43 132t-113.5 96t-151.5 35q-129 0 -218.5 -77t-89.5 -186t89.5 -186t218.5 -77
q37 0 109 18l99 -54l-27 90q127 96 127 209zM616 228q-13 0 -24.5 11t-11.5 24.5t11.5 25t24.5 11.5q20 0 33 -11t13 -25.5t-13 -25t-33 -10.5zM815 228q-13 0 -24.5 11t-11.5 24.5t11.5 25t24.5 11.5q20 0 33 -11t13 -25.5t-13 -25t-33 -10.5z" />
    <glyph glyph-name="uniE61D" unicode="&#xe61d;" 
d="M204 196q-26 81 -5.5 169.5t85.5 152.5q90 90 218 93l25 41h-17q-71 0 -136 -26q-67 -27 -119 -79t-80 -120q-26 -65 -26 -136q0 -67 24 -129zM833 280q-3 -128 -94 -218q-64 -64 -152 -85t-169 6l-35 -32q63 -24 130 -24q70 0 136 27q67 27 119 79t80 120q26 65 26 136
v17zM462 400q-11 -19 -19 -47.5t-10 -47.5l-2 -19l21 -21q10 17 34.5 48t44.5 53l19 22q19 22 37 35.5t29.5 17t20.5 4t13 -1.5l4 -2l45 46v0q-27 28 -27 66.5t27 66t65.5 27.5t66.5 -28v0l128 127q-79 4 -150.5 -17t-117.5 -51.5t-80.5 -64t-50 -54.5t-15.5 -23
q-30 -2 -65 -16t-62.5 -32t-51 -35.5t-36.5 -29.5l-12 -13q39 7 71 4.5t52 -8.5zM832 618q27 -27 27 -66t-27 -66t-66 -27t-66 27q0 1 -1 1l-45 -46q1 -1 2 -4t1 -12.5t-4 -21t-17.5 -29.5t-34.5 -37q-84 -74 -123 -98l21 -21q71 6 113 31q1 -3 3 -8t5.5 -20.5t5.5 -31.5
t2 -39.5t-5 -44.5q5 5 13 13.5t28.5 35t37 52t30.5 61t16 66.5q5 2 13 7.5t31 25t43.5 41.5t45.5 58.5t42 76t27.5 93.5t8.5 111l-128 -127zM766 552zM693 552q0 30 21.5 51t51.5 21t51 -21t21 -51t-21 -51.5t-51 -21.5t-51.5 21.5t-21.5 51.5zM435 223q64 38 144 108
q24 20 39 37.5t20.5 28t6.5 18.5t-0.5 10.5t-3 4t-4 3t-10.5 0.5t-18.5 -6.5t-28 -20.5t-38.5 -39q-69 -80 -107 -144l-1 -1v0v0zM417 267l-353 -401l370 385zM461 224l-384 -370l401 353z" />
    <glyph glyph-name="uniE61E" unicode="&#xe61e;" 
d="M368 124q0 -13 9.5 -22.5t22.5 -9.5h224q13 0 22.5 9.5t9.5 22.5v192h-288v-192zM512 748q-91 0 -174 -35.5t-143 -95.5t-95.5 -143t-35.5 -174t35.5 -174t95.5 -143t143 -95.5t174 -35.5t174 35.5t143 95.5t95.5 143t35.5 174t-35.5 174t-95.5 143t-143 95.5t-174 35.5z
M688 124q0 -26 -19 -45t-45 -19h-224q-26 0 -45 19t-19 45v224h32v48q0 60 42 102t102 42t102 -42t42 -102h-32q0 46 -33 79t-79 33t-79 -33t-33 -79v-48h288v-224z" />
    <glyph glyph-name="uniE61F" unicode="&#xe61f;" 
d="M510.5 -212q-103.5 0 -191.5 51.5t-139.5 139.5t-51.5 192v191h765v-191q0 -104 -51 -192t-139.5 -139.5t-192 -51.5zM192 298v-127q0 -87 42.5 -160.5t116 -116t160 -42.5t160 42.5t116 116t42.5 160.5v127h-637zM510.5 -53q-39.5 0 -67.5 28t-28 67v65q0 39 28 67
t67.5 28t67.5 -28t28 -67v-65q0 -39 -28 -67t-67.5 -28zM510.5 139q-13.5 0 -22.5 -9.5t-9 -22.5v-64q0 -13 9 -22.5t22.5 -9.5t22.5 9.5t9 22.5v64q0 13 -9 22.5t-22.5 9.5zM766 426h-64v137q0 75 -56 128t-135.5 53t-135.5 -53t-56 -128v-137h-63v137q0 101 74.5 173
t180 72t180.5 -72t75 -173v-137z" />
    <glyph glyph-name="uniE620" unicode="&#xe620;" horiz-adv-x="1252" 
d="M996 640zM910 640q0 35 25 60t60.5 25t60.5 -25t25 -60t-25 -60t-60.5 -25t-60.5 25t-25 60zM1244 -128q8 0 8 8v1008q0 8 -8 8h-1236q-8 0 -8 -8v-1008q0 -8 8 -8h1236zM57 839h1138v-910h-1138v910zM848 454q-3 6 -9.5 7t-12.5 -2l-157 -111q-7 -5 -11 2l-185 320
q-4 6 -8.5 6t-7.5 -6l-18 -35l-325 -627q-3 -6 -0.5 -10t8.5 -4h1005q6 0 8 4t-1 9z" />
    <glyph glyph-name="uniE621" unicode="&#xe621;" 
d="M512 181l416 347q-1 0 -3.5 0.5t-3.5 0.5h-818q-1 0 -3.5 -0.5t-3.5 -0.5zM958 492q0 4 -2 11l-295 -246l295 -295q2 7 2 9v521zM68 503q-2 -7 -2 -11v-521q0 -1 2 -9l295 295zM633 234l-109 -91q-5 -4 -12 -4t-12 4l-108 90l-298 -297q7 -2 9 -2h818q2 0 9 2z" />
    <glyph glyph-name="uniE622" unicode="&#xe622;" 
d="M293 452l-40 -41l206 -207l502 502l-41 41l-461 -461zM513 -69q-92 0 -176 36t-144.5 97t-96.5 144.5t-36 175.5t36 176t96.5 145t144.5 96.5t176 35.5q58 0 111 -13l47 47q-86 25 -158 25q-104 0 -198.5 -40.5t-163 -109t-109.5 -163.5t-41 -198.5t41 -198.5
t109.5 -163.5t163 -109t198.5 -40.5q101 0 193.5 38t160.5 103.5t110 155.5t47 190h-59q-6 -117 -68 -215.5t-163.5 -156t-220.5 -57.5z" />
    <glyph glyph-name="uniE623" unicode="&#xe623;" 
d="M793 498h-25v61v17q0 103 -73 176t-176.5 73t-177 -73t-73.5 -176v-78h-24q-51 0 -87 -36t-36 -87v-304q0 -50 36 -86t87 -36h549q51 0 86.5 36t35.5 86v304q0 51 -35.5 87t-86.5 36zM325 576q0 80 56.5 136.5t136.5 56.5t137 -56.5t57 -136.5v-14v-1v-63h-387v78z
M859 71q0 -27 -19.5 -46.5t-46.5 -19.5h-549q-28 0 -47 19.5t-19 46.5v304q0 28 19 47t47 19h24h500h25q27 0 46.5 -19t19.5 -47v-304zM688 353l-216 -210l-95 98q-8 8 -19.5 8.5t-19.5 -7.5t-8 -19.5t8 -19.5l114 -118q8 -8 19 -8t20 8l235 228q9 8 9 19.5t-8 19.5
t-19.5 8.5t-19.5 -7.5z" />
    <glyph glyph-name="uniE624" unicode="&#xe624;" 
d="M804 513h-2v72q1 11 1 19q0 121 -86 207q-85 85 -206.5 85t-207 -85.5t-85.5 -206.5v-91h2q-59 0 -101 -42t-42 -101v-355q0 -59 42 -101t101 -42h584q59 0 101 42t42 101v355q0 59 -42 101t-101 42zM284 604q0 94 66.5 160t160 66t160 -66t66.5 -160q0 -9 -1 -16v-1v-74
h-452v91zM754 283l-276 -267q-9 -9 -22.5 -9t-22.5 9l-134 138q-9 10 -9 23t9.5 22.5t23 9.5t22.5 -10l111 -115l253 245q10 9 23 9t22.5 -9.5t9 -23t-9.5 -22.5z" />
    <glyph glyph-name="uniE625" unicode="&#xe625;" 
d="M528 12h-342q-19 0 -32.5 13.5t-13.5 32.5v373q0 19 13.5 32.5t32.5 13.5h559q19 0 32.5 -13.5t13.5 -32.5v-61h47v61q0 38 -27.5 65.5t-65.5 27.5h-559q-38 0 -65.5 -27.5t-27.5 -65.5v-373q0 -38 27.5 -65.5t65.5 -27.5h342v47zM543 188l33 33l66 -66l-33 -33zM609 122
l165 165l33 -33l-165 -165zM535 849h-139q-68 0 -115.5 -47.5t-47.5 -114.5v-163h46v163q0 48 34 82t83 34h139q48 0 82.5 -34t34.5 -82v-163h46v163q0 67 -47.5 114.5t-115.5 47.5zM674 431q-106 0 -181 -75t-75 -181.5t75 -181t181 -74.5t181 74.5t75 181t-75 181.5
t-181 75zM674.5 -35q-86.5 0 -148 61.5t-61.5 148t61.5 148t148 61.5t148 -61.5t61.5 -148t-61.5 -148t-148 -61.5z" />
    <glyph glyph-name="uniE626" unicode="&#xe626;" 
d="M912 682l-369 120q-31 10 -62 0l-369 -120q-23 -7 -37.5 -27t-14.5 -44v-262q0 -114 51.5 -215.5t143.5 -169.5l212 -156q20 -15 45 -15t45 15l212 156q92 67 143.5 169t51.5 216v262q0 24 -14.5 44t-37.5 27zM899 347q0 -98 -44.5 -186t-122.5 -146l-206 -150
q-14 -11 -29 0l-205 150q-78 58 -122.5 146t-44.5 186v253q0 17 17 23l355 115q7 2 15 2t15 -2l355 -115q17 -6 17 -23v-253zM738 522h-452q-10 0 -17.5 -7.5t-7.5 -17.5q0 -12 7.5 -24.5t17.5 -12.5h195v-363q0 -10 10 -17.5t21 -7.5t21.5 7.5t10.5 17.5v363h194
q10 0 17.5 12.5t7.5 24.5q0 10 -7.5 17.5t-17.5 7.5z" />
    <glyph glyph-name="uniE627" unicode="&#xe627;" 
d="M394 -10q-6 -10 -17.5 -13t-21.5 2l-3 3q-11 5 -14 16.5t3 21.5l77 132q6 11 17.5 14t21.5 -3l4 -2q10 -6 13 -17.5t-3 -21.5zM750 196q39 61 57 127.5t16.5 120t-13 101t-27 76t-29.5 38.5q-31 22 -120 0q-33 -8 -66 -22.5t-74.5 -40.5t-80.5 -71t-68 -103q-6 1 -11 0
q-23 -6 -48 -19.5t-52 -38.5t-46.5 -57.5t-29.5 -81.5t-4 -106q2 -17 19 -23q5 -2 10 -2q11 0 19 7q18 17 48.5 31.5t48.5 1.5q3 -1 6 -3q12 -33 33 -60l35 42q-18 34 -22.5 75t3.5 79.5t18.5 68t24.5 58.5q45 91 121 146l244 -142q-10 -94 -68 -178q-75 -110 -165 -145
q-11 1 -20 -6q-25 -7 -48 -8l-22 -50q9 -7 28 -9q30 1 59 8q10 -15 12 -44.5t-2 -43.5q-3 -17 10 -28q8 -6 18 -6q6 0 11 3q52 22 90 54.5t56.5 65.5t27.5 69t8 64t-7 52zM209 176q2 38 13 69t28 52t32.5 34t33.5 22q-30 -85 -24 -157q-38 4 -83 -20zM720 609
q13 -17 27.5 -60t16.5 -96l-199 116q48 25 92 33.5t63 6.5zM595 -36q0 5 -1 9q-2 34 -14 58q63 32 119 97q-5 -103 -104 -164z" />
    <glyph glyph-name="uniE628" unicode="&#xe628;" 
d="M454 194q-6 0 -11 4l-179 180l-34 -34q-10 -10 -20.5 0.5t-0.5 20.5l44 44q11 10 21 0l180 -139l340 300q10 10 20.5 -0.5t-0.5 -20.5l-350 -351q-4 -4 -10 -4zM454 194zM892 603.5q-44 76.5 -113 129t-154 75.5q-114 31 -227 0t-196 -113t-114 -197t0 -228t113 -196
t197 -114q57 -15 114 -15q122 0 228 64q7 5 9.5 14t-2.5 16.5t-13.5 10t-16.5 -2.5q-70 -43 -149.5 -54t-157.5 10q-104 27 -178 102t-101.5 176.5t0 205t102.5 177.5t176.5 101.5t204.5 -0.5q77 -20 138.5 -67.5t101 -116t50 -146t-10.5 -153.5q-14 -53 -43 -102
q-5 -8 -3 -16.5t10 -13.5t17 -2.5t13 9.5q33 54 49 113q22 85 11 171t-55 162.5z" />
    <glyph glyph-name="uniE629" unicode="&#xe629;" horiz-adv-x="1318" 
d="M1286 557q12 0 21 8q9 9 9.5 21.5t-8.5 22.5q-125 136 -296 211t-356.5 75t-352.5 -72t-295 -207q-8 -10 -8 -23t9.5 -21.5t22.5 -8t22 9.5q118 125 273.5 192t328 67t331.5 -69.5t276 -195.5q9 -10 23 -10zM1112 351q12 0 21 8q10 9 10.5 22t-7.5 22q-92 103 -217.5 159
t-263.5 56q-134 0 -258 -54.5t-216 -153.5q-8 -9 -7.5 -22t10 -22t22 -8.5t21.5 10.5q83 89 195 138.5t233 49.5q124 0 237.5 -51t196.5 -143q10 -11 23 -11zM926 133q-14 0 -24 11q-45 56 -110 86.5t-137 30.5q-69 0 -132.5 -29t-108.5 -81q-9 -10 -22 -11t-22.5 7.5
t-10.5 21.5t7 22q55 63 130.5 97.5t158.5 34.5q86 0 163.5 -36.5t131.5 -102.5q9 -10 7.5 -23t-11.5 -21q-8 -7 -20 -7zM762 23q-14 0 -24 -10t-10 -24t10 -24t24 -10t24 10t10 24t-10 24t-24 10zM795 195q0 12 -10.5 21t-23.5 9t-23 -9t-10 -21l9 -125q0 -30 24 -30
q12 0 18.5 8.5t6.5 21.5zM761 -128q-89 0 -153 64t-64 153.5t64 153.5t153.5 64t153.5 -64t64 -153.5t-64 -153.5t-154 -64z" />
    <glyph glyph-name="uniE62A" unicode="&#xe62a;" 
d="M513 -128q-68 0 -133 18q-135 36 -231 132.5t-131.5 228t0.5 265.5q26 100 87.5 180t150.5 131t189 64.5t199 -13.5q135 -36 231 -132.5t131.5 -228t-0.5 -265.5q-18 -71 -57 -134q-6 -9 -16 -11.5t-19 3t-11.5 15.5t2.5 19q35 57 52 121q24 89 12 179t-58 170
t-118.5 135.5t-161.5 79.5t-179 12t-170 -58t-135.5 -118.5t-79.5 -161.5q-32 -120 0 -238.5t118.5 -206t207.5 -119.5q92 -25 184.5 -11.5t174.5 63.5q9 6 19.5 3.5t16 -11.5t3 -19.5t-11.5 -15.5q-124 -76 -266 -76zM512 307q-11 0 -18.5 7.5t-7.5 18.5v281q0 11 7.5 18.5
t18.5 7.5t18.5 -7.5t7.5 -18.5v-281q0 -11 -7.5 -18.5t-18.5 -7.5zM512 230q11 0 18.5 -7.5t7.5 -17.5v-51q0 -11 -7.5 -18.5t-18.5 -7.5t-18.5 7.5t-7.5 18.5v51q0 10 7.5 17.5t18.5 7.5z" />
    <glyph glyph-name="uniE62B" unicode="&#xe62b;" 
d="M480 516h64v-549h-64v549zM329 516h64v-549h-64v549zM631 516h64v-549h-64v549zM896 641h-172v41q0 23 -18.5 39t-45.5 16h-296q-27 0 -45.5 -16t-18.5 -39v-41h-177v-64h67v-675q0 -25 19 -43.5t45 -18.5h516q26 0 45 18.5t19 43.5v675h62v64zM364 673h296v-32h-296v32z
M771 -96h-1l-516 -2v675h516z" />
  </font>
</defs>
</svg>
